<?xml version="1.0" encoding="UTF-8" standalone="no"?>
<!-- Uploaded to: SVG Repo, www.svgrepo.com, Generator: SVG Repo Mixer Tools -->

<svg
   fill="#000000"
   width="800px"
   height="800px"
   viewBox="0 0 32 32"
   version="1.1"
   id="svg346"
   sodipodi:docname="Haskutil-logo3.svg"
   inkscape:version="1.1.2 (0a00cf5339, 2022-02-04)"
   inkscape:export-filename="/home/edka/work/vscode-haskutil/images/Haskutil-logo.png"
   inkscape:export-xdpi="30.719999"
   inkscape:export-ydpi="30.719999"
   xmlns:inkscape="http://www.inkscape.org/namespaces/inkscape"
   xmlns:sodipodi="http://sodipodi.sourceforge.net/DTD/sodipodi-0.dtd"
   xmlns="http://www.w3.org/2000/svg"
   xmlns:svg="http://www.w3.org/2000/svg">
  <defs
     id="defs350" />
  <sodipodi:namedview
     id="namedview348"
     pagecolor="#ffffff"
     bordercolor="#666666"
     borderopacity="1.0"
     inkscape:pageshadow="2"
     inkscape:pageopacity="0.0"
     inkscape:pagecheckerboard="0"
     showgrid="true"
     inkscape:zoom="1.09"
     inkscape:cx="302.29358"
     inkscape:cy="255.9633"
     inkscape:window-width="1920"
     inkscape:window-height="1048"
     inkscape:window-x="0"
     inkscape:window-y="0"
     inkscape:window-maximized="1"
     inkscape:current-layer="svg346">
    <inkscape:grid
       type="xygrid"
       id="grid423" />
  </sodipodi:namedview>
  <path
     d="M 5.5176052,31.2 11.510148,18.310068 5.5176052,5.4201401 H 10.015999 L 16.042805,18.310068 10.015999,31.2 Z m 5.9925428,0 5.99334,-12.889932 -5.99334,-12.8899279 h 4.532657 L 28,31.2 H 23.512764 L 19.757066,23.072449 16.042805,31.2 Z m 14.506416,-7.528258 -1.996187,-4.297785 h 6.980674 v 4.297785 z m -3.005037,-6.443824 -1.992201,-4.297785 h 9.972961 v 4.297785 z"
     id="path344"
     style="stroke-width:0.953756" />
  <path
     fill-rule="evenodd"
     clip-rule="evenodd"
     d="M 4.2387693,4.0358258 C 4.0925609,4.1741818 3.9802619,4.3281987 3.9013121,4.4978771 3.8245191,4.6669331 3.7858637,4.8506136 3.7858637,5.0493318 v 0.6638807 c 0,0.074675 -0.014561,0.1447858 -0.044005,0.2107491 -0.029121,0.065341 -0.069134,0.1222801 -0.120021,0.1710263 -0.050907,0.048743 -0.1104652,0.087121 -0.1783816,0.1149168 -0.068704,0.028005 -0.142013,0.042526 -0.2195933,0.042526 H 2.5309254 c -0.077548,0 -0.1509218,-0.013485 -0.2195931,-0.042526 C 2.2433835,6.1818995 2.1838365,6.143529 2.1329613,6.0949879 2.0820535,6.0462447 2.0420393,5.9890945 2.0129401,5.9239616 1.9834955,5.8575859 1.9688271,5.7876803 1.9688271,5.7132125 V 5.0493318 c 0,-0.1987182 -0.039475,-0.3822952 -0.1181014,-0.5512476 C 1.7736093,4.3285099 1.6621086,4.1742853 1.5159432,4.0359293 1.3283399,3.8579543 1.1835011,3.6592354 1.0819662,3.4398779 0.9801509,3.2198979 0.9294158,2.9816637 0.9294158,2.7255911 c 0,-0.1713375 0.023081,-0.33666 0.069243,-0.4959665 C 1.0447135,2.0707333 1.1102246,1.9222133 1.1951606,1.7841685 1.2799349,1.6445683 1.3814589,1.5182432 1.499528,1.4050898 1.6175539,1.2920397 1.7485118,1.1948591 1.8923366,1.1135464 2.0380922,1.0326485 2.1941155,0.9693816 2.3599213,0.925303 2.526137,0.880708 2.6986515,0.858928 2.877346,0.858928 c 0.1786945,0 0.3512195,0.02178 0.5174352,0.066375 0.165795,0.044595 0.3207614,0.1068264 0.4647696,0.1882434 0.1456476,0.080897 0.2775331,0.1784933 0.395613,0.2916469 0.1180798,0.1131535 0.2195499,0.2394785 0.3043673,0.3790787 0.08499,0.1380455 0.1504365,0.2865648 0.1965121,0.4454568 0.046163,0.1593066 0.069243,0.3247318 0.069243,0.4959658 0,0.2560733 -0.050692,0.4943069 -0.1525508,0.7142868 C 4.5711362,3.6593395 4.4263515,3.8580577 4.2387697,4.0360328 Z M 3.3547126,4.8 H 2.4 v 0.9132125 c 0,0.033189 0.012295,0.062228 0.038935,0.088158 0.026641,0.025925 0.056623,0.037337 0.092001,0.037337 h 0.6929375 c 0.035376,0 0.065361,-0.011405 0.092001,-0.037337 0.026641,-0.025925 0.038935,-0.053931 0.038935,-0.088158 z"
     fill="#ffcc00"
     id="path219"
     style="stroke-width:0.42306" />
</svg>
